ffmpeg started on 2016-12-06 at 03:29:42
Report written to "Output/x264/results/ffmpeg/crowd_run_2160p50fast3000k.log"
Command line:
Tools/ffmpeg/ffmpeg -benchmark -y -i Input/y4m/crowd_run_2160p50.y4m -c:v libx264 -preset fast -b:v 3000k -an Output/x264/encoded/crowd_run_2160p50fast3000k.mkv
ffmpeg version N-82227-gdb23fde Copyright (c) 2000-2016 the FFmpeg developers
  built with gcc 5.4.0 (Ubuntu 5.4.0-6ubuntu1~16.04.2) 20160609
  configuration: --prefix=/home/jaroslav/ffmpeg_build --pkg-config-flags=--static --extra-cflags=-I/home/jaroslav/ffmpeg_build/include --extra-ldflags=-L/home/jaroslav/ffmpeg_build/lib --bindir=/home/jaroslav/bin --enable-gpl --enable-libass --enable-libfdk-aac --enable-libfreetype --enable-libmp3lame --enable-libopus --enable-libtheora --enable-libvorbis --enable-libvpx --enable-libx264 --enable-libx265 --enable-nvenc --enable-libmfx --enable-libxvid --enable-libgsm --enable-libopencore-amrnb --enable-version3 --enable-nonfree
  libavutil      55. 35.100 / 55. 35.100
  libavcodec     57. 66.101 / 57. 66.101
  libavformat    57. 57.100 / 57. 57.100
  libavdevice    57.  2.100 / 57.  2.100
  libavfilter     6. 66.100 /  6. 66.100
  libswscale      4.  3.100 /  4.  3.100
  libswresample   2.  4.100 /  2.  4.100
  libpostproc    54.  2.100 / 54.  2.100
Input #0, yuv4mpegpipe, from 'Input/y4m/crowd_run_2160p50.y4m':
  Duration: 00:00:10.00, start: 0.000000, bitrate: 4976642 kb/s
    Stream #0:0: Video: rawvideo (I420 / 0x30323449), yuv420p(progressive), 3840x2160, SAR 1:1 DAR 16:9, 50 fps, 50 tbr, 50 tbn, 50 tbc
[libx264 @ 0x335f1c0] using SAR=1/1
[libx264 @ 0x335f1c0] using cpu capabilities: MMX2 SSE2Fast SSSE3 SSE4.2 AVX FMA3 AVX2 LZCNT BMI2
[libx264 @ 0x335f1c0] profile High, level 5.2
[libx264 @ 0x335f1c0] 264 - core 148 - H.264/MPEG-4 AVC codec - Copyleft 2003-2016 - http://www.videolan.org/x264.html - options: cabac=1 ref=2 deblock=1:0:0 analyse=0x3:0x113 me=hex subme=6 psy=1 psy_rd=1.00:0.00 mixed_ref=1 me_range=16 chroma_me=1 trellis=1 8x8dct=1 cqm=0 deadzone=21,11 fast_pskip=1 chroma_qp_offset=-2 threads=6 lookahead_threads=1 sliced_threads=0 nr=0 decimate=1 interlaced=0 bluray_compat=0 constrained_intra=0 bframes=3 b_pyramid=2 b_adapt=1 b_bias=0 direct=1 weightb=1 open_gop=0 weightp=1 keyint=250 keyint_min=25 scenecut=40 intra_refresh=0 rc_lookahead=30 rc=abr mbtree=1 bitrate=3000 ratetol=1.0 qcomp=0.60 qpmin=0 qpmax=69 qpstep=4 ip_ratio=1.40 aq=1:1.00
Output #0, matroska, to 'Output/x264/encoded/crowd_run_2160p50fast3000k.mkv':
  Metadata:
    encoder         : Lavf57.57.100
    Stream #0:0: Video: h264 (libx264) (H264 / 0x34363248), yuv420p, 3840x2160 [SAR 1:1 DAR 16:9], q=-1--1, 3000 kb/s, 50 fps, 1k tbn, 50 tbc
    Metadata:
      encoder         : Lavc57.66.101 libx264
    Side data:
      cpb: bitrate max/min/avg: 0/0/3000000 buffer size: 0 vbv_delay: -1
Stream mapping:
  Stream #0:0 -> #0:0 (rawvideo (native) -> h264 (libx264))
Press [q] to stop, [?] for help
frame=   18 fps=0.0 q=0.0 size=       0kB time=00:00:00.00 bitrate=N/A speed=   0x    frame=   26 fps= 25 q=0.0 size=       0kB time=00:00:00.00 bitrate=N/A speed=   0x    frame=   36 fps= 23 q=0.0 size=       0kB time=00:00:00.00 bitrate=N/A speed=   0x    frame=   37 fps= 12 q=0.0 size=       0kB time=00:00:00.00 bitrate=N/A speed=   0x    frame=   44 fps= 12 q=45.0 size=       1kB time=00:00:00.02 bitrate= 279.6kbits/s speed=0.00559x    frame=   52 fps= 12 q=59.0 size=       1kB time=00:00:00.18 bitrate=  32.4kbits/s speed=0.042x    frame=   59 fps= 12 q=61.0 size=       1kB time=00:00:00.32 bitrate=  18.3kbits/s speed=0.0667x    frame=   68 fps= 13 q=63.0 size=       1kB time=00:00:00.50 bitrate=  11.7kbits/s speed=0.0929x    frame=   77 fps= 13 q=64.0 size=       1kB time=00:00:00.68 bitrate=   8.6kbits/s speed=0.116x    frame=   85 fps= 13 q=64.0 size=       1kB time=00:00:00.84 bitrate=   7.0kbits/s speed=0.132x    frame=   93 fps= 13 q=64.0 size=       1kB time=00:00:01.00 bitrate=   5.9kbits/s speed=0.144x    frame=  102 fps= 13 q=64.0 size=       1kB time=00:00:01.18 bitrate=   5.0kbits/s speed=0.156x    frame=  110 fps= 14 q=64.0 size=       1kB time=00:00:01.34 bitrate=   4.4kbits/s speed=0.166x    frame=  118 fps= 14 q=63.0 size=       1kB time=00:00:01.50 bitrate=   3.9kbits/s speed=0.175x    frame=  126 fps= 14 q=63.0 size=       1kB time=00:00:01.66 bitrate=   3.5kbits/s speed=0.183x    frame=  135 fps= 14 q=63.0 size=       1kB time=00:00:01.84 bitrate=   3.2kbits/s speed=0.191x    frame=  144 fps= 14 q=63.0 size=       1kB time=00:00:02.02 bitrate=   2.9kbits/s speed=0.199x    frame=  153 fps= 14 q=63.0 size=       1kB time=00:00:02.20 bitrate=   2.7kbits/s speed=0.206x    frame=  160 fps= 14 q=63.0 size=       1kB time=00:00:02.34 bitrate=   2.5kbits/s speed=0.205x    frame=  169 fps= 14 q=63.0 size=       1kB time=00:00:02.52 bitrate=   2.3kbits/s speed=0.208x    frame=  178 fps= 14 q=63.0 size=       1kB time=00:00:02.70 bitrate=   2.2kbits/s speed=0.213x    frame=  187 fps= 14 q=63.0 size=       1kB time=00:00:02.88 bitrate=   2.0kbits/s speed=0.219x    frame=  196 fps= 14 q=63.0 size=       1kB time=00:00:03.06 bitrate=   1.9kbits/s speed=0.223x    frame=  205 fps= 14 q=63.0 size=       1kB time=00:00:03.24 bitrate=   1.8kbits/s speed=0.228x    frame=  214 fps= 14 q=63.0 size=       1kB time=00:00:03.42 bitrate=   1.7kbits/s speed=0.23x    frame=  223 fps= 14 q=63.0 size=       1kB time=00:00:03.60 bitrate=   1.6kbits/s speed=0.234x    frame=  232 fps= 15 q=63.0 size=       1kB time=00:00:03.78 bitrate=   1.6kbits/s speed=0.238x    frame=  240 fps= 15 q=63.0 size=       1kB time=00:00:03.94 bitrate=   1.5kbits/s speed=0.24x    frame=  249 fps= 15 q=63.0 size=       1kB time=00:00:04.12 bitrate=   1.4kbits/s speed=0.242x    frame=  258 fps= 15 q=63.0 size=       1kB time=00:00:04.30 bitrate=   1.4kbits/s speed=0.245x    frame=  267 fps= 15 q=63.0 size=       1kB time=00:00:04.48 bitrate=   1.3kbits/s speed=0.247x    frame=  276 fps= 15 q=63.0 size=       1kB time=00:00:04.66 bitrate=   1.3kbits/s speed=0.249x    frame=  285 fps= 15 q=63.0 size=       1kB time=00:00:04.84 bitrate=   1.2kbits/s speed=0.252x    frame=  287 fps= 14 q=63.0 size=       1kB time=00:00:04.88 bitrate=   1.2kbits/s speed=0.242x    frame=  296 fps= 14 q=63.0 size=    2003kB time=00:00:05.06 bitrate=3242.2kbits/s speed=0.244x    frame=  305 fps= 14 q=63.0 size=    2003kB time=00:00:05.24 bitrate=3130.8kbits/s speed=0.247x    frame=  314 fps= 14 q=63.0 size=    2003kB time=00:00:05.42 bitrate=3026.9kbits/s speed=0.248x    frame=  322 fps= 14 q=63.0 size=    2003kB time=00:00:05.58 bitrate=2940.1kbits/s speed=0.25x    frame=  330 fps= 14 q=63.0 size=    2003kB time=00:00:05.74 bitrate=2858.2kbits/s speed=0.251x    frame=  340 fps= 14 q=63.0 size=    2003kB time=00:00:05.94 bitrate=2761.9kbits/s speed=0.253x    frame=  349 fps= 15 q=63.0 size=    2003kB time=00:00:06.12 bitrate=2680.7kbits/s speed=0.255x    frame=  356 fps= 15 q=63.0 size=    2003kB time=00:00:06.26 bitrate=2620.8kbits/s speed=0.255x    frame=  365 fps= 15 q=63.0 size=    2003kB time=00:00:06.44 bitrate=2547.5kbits/s speed=0.257x    frame=  373 fps= 15 q=63.0 size=    2003kB time=00:00:06.60 bitrate=2485.8kbits/s speed=0.258x    frame=  382 fps= 15 q=63.0 size=    2003kB time=00:00:06.78 bitrate=2419.8kbits/s speed=0.259x    frame=  390 fps= 15 q=63.0 size=    2003kB time=00:00:06.94 bitrate=2364.0kbits/s speed=0.26x    frame=  399 fps= 15 q=63.0 size=    2003kB time=00:00:07.12 bitrate=2304.3kbits/s speed=0.262x    frame=  407 fps= 15 q=63.0 size=    2003kB time=00:00:07.28 bitrate=2253.6kbits/s speed=0.263x    frame=  415 fps= 15 q=63.0 size=    2003kB time=00:00:07.44 bitrate=2205.2kbits/s speed=0.263x    frame=  424 fps= 15 q=64.0 size=    2003kB time=00:00:07.62 bitrate=2153.1kbits/s speed=0.264x    frame=  432 fps= 15 q=64.0 size=    2003kB time=00:00:07.78 bitrate=2108.8kbits/s speed=0.265x    frame=  440 fps= 15 q=64.0 size=    2003kB time=00:00:07.94 bitrate=2066.3kbits/s speed=0.266x    frame=  447 fps= 15 q=64.0 size=    2003kB time=00:00:08.08 bitrate=2030.5kbits/s speed=0.266x    frame=  455 fps= 15 q=64.0 size=    2003kB time=00:00:08.24 bitrate=1991.1kbits/s speed=0.266x    frame=  462 fps= 15 q=64.0 size=    2003kB time=00:00:08.38 bitrate=1957.9kbits/s speed=0.266x    frame=  470 fps= 15 q=64.0 size=    2003kB time=00:00:08.54 bitrate=1921.2kbits/s speed=0.267x    frame=  479 fps= 15 q=64.0 size=    2003kB time=00:00:08.72 bitrate=1881.5kbits/s speed=0.268x    frame=  486 fps= 15 q=64.0 size=    2003kB time=00:00:08.86 bitrate=1851.8kbits/s speed=0.268x    frame=  495 fps= 15 q=64.0 size=    2003kB time=00:00:09.04 bitrate=1814.9kbits/s speed=0.269x    frame=  500 fps= 14 q=-1.0 Lsize=    3965kB time=00:00:09.94 bitrate=3267.1kbits/s speed=0.278x    
video:3960kB audio:0kB subtitle:0kB other streams:0kB global headers:0kB muxing overhead: 0.106744%
bench: utime=119.036s
bench: maxrss=1560044kB
[libx264 @ 0x335f1c0] frame I:2     Avg QP:45.62  size: 94274
[libx264 @ 0x335f1c0] frame P:126   Avg QP:50.89  size: 13973
[libx264 @ 0x335f1c0] frame B:372   Avg QP:50.93  size:  5660
[libx264 @ 0x335f1c0] consecutive B-frames:  0.8%  0.0%  0.0% 99.2%
[libx264 @ 0x335f1c0] mb I  I16..4: 38.6% 58.0%  3.4%
[libx264 @ 0x335f1c0] mb P  I16..4:  8.1%  2.0%  0.0%  P16..4: 14.2%  1.1%  4.6%  0.0%  0.0%    skip:70.0%
[libx264 @ 0x335f1c0] mb B  I16..4:  0.0%  0.0%  0.0%  B16..8:  8.9%  0.1%  0.0%  direct: 1.8%  skip:89.1%  L0:46.9% L1:53.0% BI: 0.1%
[libx264 @ 0x335f1c0] final ratefactor: 55.22
[libx264 @ 0x335f1c0] 8x8 transform intra:25.4% inter:98.0%
[libx264 @ 0x335f1c0] coded y,uvDC,uvAC intra: 4.4% 21.6% 1.8% inter: 0.3% 1.7% 0.0%
[libx264 @ 0x335f1c0] i16 v,h,dc,p: 75% 19%  4%  2%
[libx264 @ 0x335f1c0] i8 v,h,dc,ddl,ddr,vr,hd,vl,hu: 11%  7% 64%  4%  3%  3%  3%  3%  2%
[libx264 @ 0x335f1c0] i4 v,h,dc,ddl,ddr,vr,hd,vl,hu: 28% 19% 13%  9%  8%  7%  6%  6%  5%
[libx264 @ 0x335f1c0] i8c dc,h,v,p: 98%  1%  1%  0%
[libx264 @ 0x335f1c0] Weighted P-Frames: Y:1.6% UV:0.0%
[libx264 @ 0x335f1c0] ref P L0: 54.9% 45.1%
[libx264 @ 0x335f1c0] ref B L0: 77.6% 22.4%
[libx264 @ 0x335f1c0] ref B L1: 90.6%  9.4%
[libx264 @ 0x335f1c0] kb/s:3243.84
